<mxfile host="app.diagrams.net" agent="Mozilla/5.0 (Macintosh; Intel Mac OS X 10_15_7) AppleWebKit/537.36 (KHTML, like Gecko) Chrome/124.0.0.0 Safari/537.36" version="24.8.1">
  <diagram name="第 1 页" id="qtyDjqLQHK5Gok8XYNWb">
    <mxGraphModel dx="306" dy="1363" grid="1" gridSize="10" guides="1" tooltips="1" connect="1" arrows="1" fold="1" page="1" pageScale="1" pageWidth="827" pageHeight="1169" background="none" math="0" shadow="0">
      <root>
        <mxCell id="0" />
        <mxCell id="1" parent="0" />
        <mxCell id="a6EMXTeNVGumvd3EIG6Z-1" value="&lt;font style=&quot;font-size: 60px;&quot;&gt;Lingfeng&lt;/font&gt;" style="text;html=1;align=center;verticalAlign=middle;whiteSpace=wrap;rounded=1;fontFamily=Verdana;fontStyle=0;spacing=2;" vertex="1" parent="1">
          <mxGeometry x="365" y="-8" width="160" height="60" as="geometry" />
        </mxCell>
        <mxCell id="a6EMXTeNVGumvd3EIG6Z-2" value="0" style="text;align=center;verticalAlign=middle;rounded=0;fontSize=4;spacing=1;fontColor=default;" vertex="1" parent="1">
          <mxGeometry x="315" y="-9" width="10" height="10" as="geometry" />
        </mxCell>
        <mxCell id="a6EMXTeNVGumvd3EIG6Z-4" value="" style="endArrow=classic;html=1;rounded=0;endSize=2;startSize=1;jumpSize=0;" edge="1" parent="1">
          <mxGeometry width="50" height="50" relative="1" as="geometry">
            <mxPoint x="320" as="sourcePoint" />
            <mxPoint x="580" as="targetPoint" />
          </mxGeometry>
        </mxCell>
        <mxCell id="a6EMXTeNVGumvd3EIG6Z-5" value="" style="endArrow=classic;html=1;rounded=0;jumpSize=0;startSize=1;endSize=2;" edge="1" parent="1">
          <mxGeometry width="50" height="50" relative="1" as="geometry">
            <mxPoint x="320" as="sourcePoint" />
            <mxPoint x="320" y="70" as="targetPoint" />
          </mxGeometry>
        </mxCell>
        <mxCell id="a6EMXTeNVGumvd3EIG6Z-7" value="20" style="text;align=center;verticalAlign=middle;rounded=0;fontSize=4;spacing=1;fontColor=default;" vertex="1" parent="1">
          <mxGeometry x="334" y="-9" width="10" height="10" as="geometry" />
        </mxCell>
        <mxCell id="a6EMXTeNVGumvd3EIG6Z-8" value="40" style="text;align=center;verticalAlign=middle;rounded=0;fontSize=4;spacing=1;fontColor=default;" vertex="1" parent="1">
          <mxGeometry x="354" y="-9" width="10" height="10" as="geometry" />
        </mxCell>
        <mxCell id="a6EMXTeNVGumvd3EIG6Z-9" value="60" style="text;align=center;verticalAlign=middle;rounded=0;fontSize=4;spacing=1;fontColor=default;" vertex="1" parent="1">
          <mxGeometry x="374" y="-9" width="10" height="10" as="geometry" />
        </mxCell>
        <mxCell id="a6EMXTeNVGumvd3EIG6Z-10" value="80" style="text;align=center;verticalAlign=middle;rounded=0;fontSize=4;spacing=1;fontColor=default;" vertex="1" parent="1">
          <mxGeometry x="394" y="-9" width="10" height="10" as="geometry" />
        </mxCell>
        <mxCell id="a6EMXTeNVGumvd3EIG6Z-11" value="100" style="text;align=center;verticalAlign=middle;rounded=0;fontSize=4;spacing=1;fontColor=default;" vertex="1" parent="1">
          <mxGeometry x="414" y="-9" width="10" height="10" as="geometry" />
        </mxCell>
        <mxCell id="a6EMXTeNVGumvd3EIG6Z-12" value="140" style="text;align=center;verticalAlign=middle;rounded=0;fontSize=4;spacing=1;fontColor=default;" vertex="1" parent="1">
          <mxGeometry x="454" y="-9" width="10" height="10" as="geometry" />
        </mxCell>
        <mxCell id="a6EMXTeNVGumvd3EIG6Z-13" value="200" style="text;align=center;verticalAlign=middle;rounded=0;fontSize=4;spacing=1;fontColor=default;" vertex="1" parent="1">
          <mxGeometry x="514" y="-9" width="10" height="10" as="geometry" />
        </mxCell>
        <mxCell id="a6EMXTeNVGumvd3EIG6Z-14" value="260" style="text;align=center;verticalAlign=middle;rounded=0;fontSize=4;spacing=1;fontColor=default;" vertex="1" parent="1">
          <mxGeometry x="574" y="-9" width="10" height="10" as="geometry" />
        </mxCell>
        <mxCell id="a6EMXTeNVGumvd3EIG6Z-15" value="20" style="text;align=center;verticalAlign=middle;rounded=0;fontSize=4;spacing=1;fontColor=default;" vertex="1" parent="1">
          <mxGeometry x="308" y="15" width="10" height="10" as="geometry" />
        </mxCell>
        <mxCell id="a6EMXTeNVGumvd3EIG6Z-16" value="10" style="text;align=center;verticalAlign=middle;rounded=0;fontSize=4;spacing=1;fontColor=default;" vertex="1" parent="1">
          <mxGeometry x="308" y="5" width="10" height="10" as="geometry" />
        </mxCell>
        <mxCell id="a6EMXTeNVGumvd3EIG6Z-17" value="40" style="text;align=center;verticalAlign=middle;rounded=0;fontSize=4;spacing=1;fontColor=default;" vertex="1" parent="1">
          <mxGeometry x="308" y="35" width="10" height="10" as="geometry" />
        </mxCell>
        <mxCell id="a6EMXTeNVGumvd3EIG6Z-18" value="30" style="text;align=center;verticalAlign=middle;rounded=0;fontSize=4;spacing=1;fontColor=default;" vertex="1" parent="1">
          <mxGeometry x="308" y="25" width="10" height="10" as="geometry" />
        </mxCell>
        <mxCell id="a6EMXTeNVGumvd3EIG6Z-19" value="60" style="text;align=center;verticalAlign=middle;rounded=0;fontSize=4;spacing=1;fontColor=default;" vertex="1" parent="1">
          <mxGeometry x="308" y="55" width="10" height="10" as="geometry" />
        </mxCell>
        <mxCell id="a6EMXTeNVGumvd3EIG6Z-20" value="50" style="text;align=center;verticalAlign=middle;rounded=0;fontSize=4;spacing=1;fontColor=default;" vertex="1" parent="1">
          <mxGeometry x="308" y="45" width="10" height="10" as="geometry" />
        </mxCell>
        <mxCell id="a6EMXTeNVGumvd3EIG6Z-21" value="120" style="text;align=center;verticalAlign=middle;rounded=0;fontSize=4;spacing=1;fontColor=default;" vertex="1" parent="1">
          <mxGeometry x="435" y="-9" width="10" height="10" as="geometry" />
        </mxCell>
        <mxCell id="a6EMXTeNVGumvd3EIG6Z-22" value="160" style="text;align=center;verticalAlign=middle;rounded=0;fontSize=4;spacing=1;fontColor=default;" vertex="1" parent="1">
          <mxGeometry x="474" y="-9" width="10" height="10" as="geometry" />
        </mxCell>
        <mxCell id="a6EMXTeNVGumvd3EIG6Z-23" value="180" style="text;align=center;verticalAlign=middle;rounded=0;fontSize=4;spacing=1;fontColor=default;" vertex="1" parent="1">
          <mxGeometry x="494" y="-9" width="10" height="10" as="geometry" />
        </mxCell>
        <mxCell id="a6EMXTeNVGumvd3EIG6Z-24" value="220" style="text;align=center;verticalAlign=middle;rounded=0;fontSize=4;spacing=1;fontColor=default;" vertex="1" parent="1">
          <mxGeometry x="535" y="-9" width="10" height="10" as="geometry" />
        </mxCell>
        <mxCell id="a6EMXTeNVGumvd3EIG6Z-25" value="240" style="text;align=center;verticalAlign=middle;rounded=0;fontSize=4;spacing=1;fontColor=default;" vertex="1" parent="1">
          <mxGeometry x="555" y="-9" width="10" height="10" as="geometry" />
        </mxCell>
        <mxCell id="a6EMXTeNVGumvd3EIG6Z-26" value="80" style="text;align=center;verticalAlign=middle;rounded=0;fontSize=4;spacing=1;fontColor=default;" vertex="1" parent="1">
          <mxGeometry x="308" y="64" width="10" height="10" as="geometry" />
        </mxCell>
        <mxCell id="a6EMXTeNVGumvd3EIG6Z-27" value="2,3" style="text;align=center;verticalAlign=middle;rounded=0;fontSize=3;spacing=1;fontColor=default;" vertex="1" parent="1">
          <mxGeometry x="326" width="10" height="10" as="geometry" />
        </mxCell>
        <mxCell id="a6EMXTeNVGumvd3EIG6Z-28" value="2,42" style="text;align=center;verticalAlign=middle;rounded=0;fontSize=3;spacing=1;fontColor=default;" vertex="1" parent="1">
          <mxGeometry x="326" y="35" width="10" height="10" as="geometry" />
        </mxCell>
        <mxCell id="a6EMXTeNVGumvd3EIG6Z-29" value="30,42" style="text;align=center;verticalAlign=middle;rounded=0;fontSize=3;spacing=1;fontColor=default;" vertex="1" parent="1">
          <mxGeometry x="343" y="35" width="10" height="10" as="geometry" />
        </mxCell>
        <mxCell id="a6EMXTeNVGumvd3EIG6Z-30" value="40,3" style="text;align=center;verticalAlign=middle;rounded=0;fontSize=3;spacing=1;fontColor=default;" vertex="1" parent="1">
          <mxGeometry x="360" y="-1" width="10" height="10" as="geometry" />
        </mxCell>
        <mxCell id="a6EMXTeNVGumvd3EIG6Z-31" value="40,8" style="text;align=center;verticalAlign=middle;rounded=0;fontSize=3;spacing=1;fontColor=default;" vertex="1" parent="1">
          <mxGeometry x="360" y="4" width="10" height="10" as="geometry" />
        </mxCell>
        <mxCell id="a6EMXTeNVGumvd3EIG6Z-32" value="40,13" style="text;align=center;verticalAlign=middle;rounded=0;fontSize=3;spacing=1;fontColor=default;" vertex="1" parent="1">
          <mxGeometry x="360" y="10" width="10" height="10" as="geometry" />
        </mxCell>
        <mxCell id="a6EMXTeNVGumvd3EIG6Z-33" value="40,42" style="text;align=center;verticalAlign=middle;rounded=0;fontSize=3;spacing=1;fontColor=default;" vertex="1" parent="1">
          <mxGeometry x="360" y="38" width="10" height="10" as="geometry" />
        </mxCell>
        <mxCell id="a6EMXTeNVGumvd3EIG6Z-34" value="55,13" style="text;align=center;verticalAlign=middle;rounded=0;fontSize=3;spacing=1;fontColor=default;" vertex="1" parent="1">
          <mxGeometry x="370" y="7" width="10" height="10" as="geometry" />
        </mxCell>
        <mxCell id="a6EMXTeNVGumvd3EIG6Z-35" value="55,42" style="text;align=center;verticalAlign=middle;rounded=0;fontSize=3;spacing=1;fontColor=default;" vertex="1" parent="1">
          <mxGeometry x="377" y="38" width="10" height="10" as="geometry" />
        </mxCell>
        <mxCell id="a6EMXTeNVGumvd3EIG6Z-36" value="55,23" style="text;align=center;verticalAlign=middle;rounded=0;fontSize=3;spacing=1;fontColor=default;" vertex="1" parent="1">
          <mxGeometry x="376" y="19" width="10" height="10" as="geometry" />
        </mxCell>
        <mxCell id="a6EMXTeNVGumvd3EIG6Z-37" value="62,12" style="text;align=center;verticalAlign=middle;rounded=0;fontSize=3;spacing=1;fontColor=default;" vertex="1" parent="1">
          <mxGeometry x="380" y="4" width="10" height="10" as="geometry" />
        </mxCell>
        <mxCell id="a6EMXTeNVGumvd3EIG6Z-38" value="" style="endArrow=classic;html=1;rounded=0;startSize=1;endSize=1;strokeWidth=0.2;exitDx=0;exitDy=0;jumpSize=2;" edge="1" parent="1" source="a6EMXTeNVGumvd3EIG6Z-50">
          <mxGeometry width="50" height="50" relative="1" as="geometry">
            <mxPoint x="378" y="19" as="sourcePoint" />
            <mxPoint x="382" y="9" as="targetPoint" />
          </mxGeometry>
        </mxCell>
        <mxCell id="a6EMXTeNVGumvd3EIG6Z-39" value="" style="endArrow=classic;html=1;rounded=0;startSize=1;endSize=1;strokeWidth=0.2;jumpSize=2;entryX=1.28;entryY=0.527;entryDx=0;entryDy=0;entryPerimeter=0;" edge="1" parent="1">
          <mxGeometry width="50" height="50" relative="1" as="geometry">
            <mxPoint x="398" y="20" as="sourcePoint" />
            <mxPoint x="390.79999999999995" y="9.269999999999982" as="targetPoint" />
          </mxGeometry>
        </mxCell>
        <mxCell id="a6EMXTeNVGumvd3EIG6Z-40" value="70,12" style="text;align=center;verticalAlign=middle;rounded=0;fontSize=3;spacing=1;fontColor=default;" vertex="1" parent="1">
          <mxGeometry x="390" y="4" width="10" height="10" as="geometry" />
        </mxCell>
        <mxCell id="a6EMXTeNVGumvd3EIG6Z-41" value="75,20" style="text;align=center;verticalAlign=middle;rounded=0;fontSize=3;spacing=1;fontColor=default;" vertex="1" parent="1">
          <mxGeometry x="396" y="13" width="10" height="10" as="geometry" />
        </mxCell>
        <mxCell id="a6EMXTeNVGumvd3EIG6Z-42" value="75,42" style="text;align=center;verticalAlign=middle;rounded=0;fontSize=3;spacing=1;fontColor=default;" vertex="1" parent="1">
          <mxGeometry x="392" y="44" width="10" height="10" as="geometry" />
        </mxCell>
        <mxCell id="a6EMXTeNVGumvd3EIG6Z-43" value="" style="shape=waypoint;fillStyle=solid;size=6;pointerEvents=1;points=[];fillColor=#e51400;resizable=0;rotatable=0;perimeter=centerPerimeter;snapToPoint=1;strokeWidth=0.1;fontSize=5;strokeColor=#B20000;fontColor=#ffffff;shadow=0;spacing=1;" vertex="1" parent="1">
          <mxGeometry x="315" y="-6" width="20" height="20" as="geometry" />
        </mxCell>
        <mxCell id="a6EMXTeNVGumvd3EIG6Z-44" value="" style="shape=waypoint;fillStyle=solid;size=6;pointerEvents=1;points=[];fillColor=#e51400;resizable=0;rotatable=0;perimeter=centerPerimeter;snapToPoint=1;strokeWidth=0.1;fontSize=5;strokeColor=#B20000;fontColor=#ffffff;shadow=0;spacing=1;" vertex="1" parent="1">
          <mxGeometry x="315" y="32" width="20" height="20" as="geometry" />
        </mxCell>
        <mxCell id="a6EMXTeNVGumvd3EIG6Z-45" value="" style="shape=waypoint;fillStyle=solid;size=6;pointerEvents=1;points=[];fillColor=#e51400;resizable=0;rotatable=0;perimeter=centerPerimeter;snapToPoint=1;strokeWidth=0.1;fontSize=5;strokeColor=#B20000;fontColor=#ffffff;shadow=0;spacing=1;" vertex="1" parent="1">
          <mxGeometry x="338" y="34" width="20" height="20" as="geometry" />
        </mxCell>
        <mxCell id="a6EMXTeNVGumvd3EIG6Z-46" value="" style="shape=waypoint;fillStyle=solid;size=6;pointerEvents=1;points=[];fillColor=#e51400;resizable=0;rotatable=0;perimeter=centerPerimeter;snapToPoint=1;strokeWidth=0.1;fontSize=5;strokeColor=#B20000;fontColor=#ffffff;shadow=0;spacing=1;" vertex="1" parent="1">
          <mxGeometry x="348" y="-8" width="20" height="20" as="geometry" />
        </mxCell>
        <mxCell id="a6EMXTeNVGumvd3EIG6Z-47" value="" style="shape=waypoint;fillStyle=solid;size=6;pointerEvents=1;points=[];fillColor=#e51400;resizable=0;rotatable=0;perimeter=centerPerimeter;snapToPoint=1;strokeWidth=0.1;fontSize=5;strokeColor=#B20000;fontColor=#ffffff;shadow=0;spacing=1;" vertex="1" parent="1">
          <mxGeometry x="348" y="-1" width="20" height="20" as="geometry" />
        </mxCell>
        <mxCell id="a6EMXTeNVGumvd3EIG6Z-48" value="" style="shape=waypoint;fillStyle=solid;size=6;pointerEvents=1;points=[];fillColor=#e51400;resizable=0;rotatable=0;perimeter=centerPerimeter;snapToPoint=1;strokeWidth=0.1;fontSize=5;strokeColor=#B20000;fontColor=#ffffff;shadow=0;spacing=1;" vertex="1" parent="1">
          <mxGeometry x="348" y="5" width="20" height="20" as="geometry" />
        </mxCell>
        <mxCell id="a6EMXTeNVGumvd3EIG6Z-49" value="" style="shape=waypoint;fillStyle=solid;size=6;pointerEvents=1;points=[];fillColor=#e51400;resizable=0;rotatable=0;perimeter=centerPerimeter;snapToPoint=1;strokeWidth=0.1;fontSize=5;strokeColor=#B20000;fontColor=#ffffff;shadow=0;spacing=1;" vertex="1" parent="1">
          <mxGeometry x="348" y="34" width="20" height="20" as="geometry" />
        </mxCell>
        <mxCell id="a6EMXTeNVGumvd3EIG6Z-51" value="" style="endArrow=classic;html=1;rounded=0;startSize=1;endSize=1;strokeWidth=0.2;exitX=0.5;exitY=1;exitDx=0;exitDy=0;jumpSize=2;" edge="1" parent="1" source="a6EMXTeNVGumvd3EIG6Z-34" target="a6EMXTeNVGumvd3EIG6Z-50">
          <mxGeometry width="50" height="50" relative="1" as="geometry">
            <mxPoint x="375" y="17" as="sourcePoint" />
            <mxPoint x="382" y="9" as="targetPoint" />
          </mxGeometry>
        </mxCell>
        <mxCell id="a6EMXTeNVGumvd3EIG6Z-50" value="" style="shape=waypoint;fillStyle=solid;size=6;pointerEvents=1;points=[];fillColor=#e51400;resizable=0;rotatable=0;perimeter=centerPerimeter;snapToPoint=1;strokeWidth=0.1;fontSize=5;strokeColor=#B20000;fontColor=#ffffff;shadow=0;spacing=1;" vertex="1" parent="1">
          <mxGeometry x="364" y="5" width="20" height="20" as="geometry" />
        </mxCell>
        <mxCell id="a6EMXTeNVGumvd3EIG6Z-52" value="" style="shape=waypoint;fillStyle=solid;size=6;pointerEvents=1;points=[];fillColor=#e51400;resizable=0;rotatable=0;perimeter=centerPerimeter;snapToPoint=1;strokeWidth=0.1;fontSize=5;strokeColor=#B20000;fontColor=#ffffff;shadow=0;spacing=1;" vertex="1" parent="1">
          <mxGeometry x="364" y="33" width="20" height="20" as="geometry" />
        </mxCell>
        <mxCell id="a6EMXTeNVGumvd3EIG6Z-53" value="" style="shape=waypoint;fillStyle=solid;size=6;pointerEvents=1;points=[];fillColor=#e51400;resizable=0;rotatable=0;perimeter=centerPerimeter;snapToPoint=1;strokeWidth=0.1;fontSize=5;strokeColor=#B20000;fontColor=#ffffff;shadow=0;spacing=1;" vertex="1" parent="1">
          <mxGeometry x="364" y="12" width="20" height="20" as="geometry" />
        </mxCell>
        <mxCell id="a6EMXTeNVGumvd3EIG6Z-54" value="" style="shape=waypoint;fillStyle=solid;size=6;pointerEvents=1;points=[];fillColor=#e51400;resizable=0;rotatable=0;perimeter=centerPerimeter;snapToPoint=1;strokeWidth=0.1;fontSize=5;strokeColor=#B20000;fontColor=#ffffff;shadow=0;spacing=1;" vertex="1" parent="1">
          <mxGeometry x="386" y="12" width="20" height="20" as="geometry" />
        </mxCell>
        <mxCell id="a6EMXTeNVGumvd3EIG6Z-55" value="" style="shape=waypoint;fillStyle=solid;size=6;pointerEvents=1;points=[];fillColor=#e51400;resizable=0;rotatable=0;perimeter=centerPerimeter;snapToPoint=1;strokeWidth=0.1;fontSize=5;strokeColor=#B20000;fontColor=#ffffff;shadow=0;spacing=1;" vertex="1" parent="1">
          <mxGeometry x="386" y="34" width="20" height="20" as="geometry" />
        </mxCell>
        <mxCell id="a6EMXTeNVGumvd3EIG6Z-56" value="" style="shape=waypoint;fillStyle=solid;size=6;pointerEvents=1;points=[];fillColor=#e51400;resizable=0;rotatable=0;perimeter=centerPerimeter;snapToPoint=1;strokeWidth=0.1;fontSize=5;strokeColor=#B20000;fontColor=#ffffff;shadow=0;spacing=1;" vertex="1" parent="1">
          <mxGeometry x="423" y="7" width="20" height="20" as="geometry" />
        </mxCell>
        <mxCell id="a6EMXTeNVGumvd3EIG6Z-57" value="" style="shape=waypoint;fillStyle=solid;size=6;pointerEvents=1;points=[];fillColor=#e51400;resizable=0;rotatable=0;perimeter=centerPerimeter;snapToPoint=1;strokeWidth=0.1;fontSize=5;strokeColor=#B20000;fontColor=#ffffff;shadow=0;spacing=1;" vertex="1" parent="1">
          <mxGeometry x="423" y="38" width="20" height="20" as="geometry" />
        </mxCell>
        <mxCell id="a6EMXTeNVGumvd3EIG6Z-58" value="" style="shape=waypoint;fillStyle=solid;size=6;pointerEvents=1;points=[];fillColor=#e51400;resizable=0;rotatable=0;perimeter=centerPerimeter;snapToPoint=1;strokeWidth=0.1;fontSize=5;strokeColor=#B20000;fontColor=#ffffff;shadow=0;spacing=1;" vertex="1" parent="1">
          <mxGeometry x="402" y="45" width="20" height="20" as="geometry" />
        </mxCell>
        <mxCell id="a6EMXTeNVGumvd3EIG6Z-59" value="" style="shape=waypoint;fillStyle=solid;size=6;pointerEvents=1;points=[];fillColor=#e51400;resizable=0;rotatable=0;perimeter=centerPerimeter;snapToPoint=1;strokeWidth=0.1;fontSize=5;strokeColor=#B20000;fontColor=#ffffff;shadow=0;spacing=1;" vertex="1" parent="1">
          <mxGeometry x="423" y="28" width="20" height="20" as="geometry" />
        </mxCell>
        <mxCell id="a6EMXTeNVGumvd3EIG6Z-60" value="" style="shape=waypoint;fillStyle=solid;size=6;pointerEvents=1;points=[];fillColor=#e51400;resizable=0;rotatable=0;perimeter=centerPerimeter;snapToPoint=1;strokeWidth=0.1;fontSize=5;strokeColor=#B20000;fontColor=#ffffff;shadow=0;spacing=1;" vertex="1" parent="1">
          <mxGeometry x="402" y="10" width="20" height="20" as="geometry" />
        </mxCell>
        <mxCell id="a6EMXTeNVGumvd3EIG6Z-61" value="" style="shape=waypoint;fillStyle=solid;size=6;pointerEvents=1;points=[];fillColor=#e51400;resizable=0;rotatable=0;perimeter=centerPerimeter;snapToPoint=1;strokeWidth=0.1;fontSize=5;strokeColor=#B20000;fontColor=#ffffff;shadow=0;spacing=1;" vertex="1" parent="1">
          <mxGeometry x="403" y="30" width="20" height="20" as="geometry" />
        </mxCell>
        <mxCell id="a6EMXTeNVGumvd3EIG6Z-62" value="" style="shape=waypoint;fillStyle=solid;size=6;pointerEvents=1;points=[];fillColor=#e51400;resizable=0;rotatable=0;perimeter=centerPerimeter;snapToPoint=1;strokeWidth=0.1;fontSize=5;strokeColor=#B20000;fontColor=#ffffff;shadow=0;spacing=1;" vertex="1" parent="1">
          <mxGeometry x="453" y="-7" width="20" height="20" as="geometry" />
        </mxCell>
        <mxCell id="a6EMXTeNVGumvd3EIG6Z-63" value="" style="shape=waypoint;fillStyle=solid;size=6;pointerEvents=1;points=[];fillColor=#e51400;resizable=0;rotatable=0;perimeter=centerPerimeter;snapToPoint=1;strokeWidth=0.1;fontSize=5;strokeColor=#B20000;fontColor=#ffffff;shadow=0;spacing=1;" vertex="1" parent="1">
          <mxGeometry x="440" y="6" width="20" height="20" as="geometry" />
        </mxCell>
        <mxCell id="a6EMXTeNVGumvd3EIG6Z-64" value="" style="shape=waypoint;fillStyle=solid;size=6;pointerEvents=1;points=[];fillColor=#e51400;resizable=0;rotatable=0;perimeter=centerPerimeter;snapToPoint=1;strokeWidth=0.1;fontSize=5;strokeColor=#B20000;fontColor=#ffffff;shadow=0;spacing=1;" vertex="1" parent="1">
          <mxGeometry x="440" y="34" width="20" height="20" as="geometry" />
        </mxCell>
        <mxCell id="a6EMXTeNVGumvd3EIG6Z-65" value="" style="shape=waypoint;fillStyle=solid;size=6;pointerEvents=1;points=[];fillColor=#e51400;resizable=0;rotatable=0;perimeter=centerPerimeter;snapToPoint=1;strokeWidth=0.1;fontSize=5;strokeColor=#B20000;fontColor=#ffffff;shadow=0;spacing=1;" vertex="1" parent="1">
          <mxGeometry x="433" y="6" width="20" height="20" as="geometry" />
        </mxCell>
        <mxCell id="a6EMXTeNVGumvd3EIG6Z-66" value="" style="shape=waypoint;fillStyle=solid;size=6;pointerEvents=1;points=[];fillColor=#e51400;resizable=0;rotatable=0;perimeter=centerPerimeter;snapToPoint=1;strokeWidth=0.1;fontSize=5;strokeColor=#B20000;fontColor=#ffffff;shadow=0;spacing=1;" vertex="1" parent="1">
          <mxGeometry x="451" y="6" width="20" height="20" as="geometry" />
        </mxCell>
        <mxCell id="a6EMXTeNVGumvd3EIG6Z-67" value="" style="shape=waypoint;fillStyle=solid;size=6;pointerEvents=1;points=[];fillColor=#e51400;resizable=0;rotatable=0;perimeter=centerPerimeter;snapToPoint=1;strokeWidth=0.1;fontSize=5;strokeColor=#B20000;fontColor=#ffffff;shadow=0;spacing=1;" vertex="1" parent="1">
          <mxGeometry x="483" y="18" width="20" height="20" as="geometry" />
        </mxCell>
        <mxCell id="a6EMXTeNVGumvd3EIG6Z-68" value="" style="shape=waypoint;fillStyle=solid;size=6;pointerEvents=1;points=[];fillColor=#e51400;resizable=0;rotatable=0;perimeter=centerPerimeter;snapToPoint=1;strokeWidth=0.1;fontSize=5;strokeColor=#B20000;fontColor=#ffffff;shadow=0;spacing=1;" vertex="1" parent="1">
          <mxGeometry x="458" y="18" width="20" height="20" as="geometry" />
        </mxCell>
        <mxCell id="a6EMXTeNVGumvd3EIG6Z-69" value="" style="shape=waypoint;fillStyle=solid;size=6;pointerEvents=1;points=[];fillColor=#e51400;resizable=0;rotatable=0;perimeter=centerPerimeter;snapToPoint=1;strokeWidth=0.1;fontSize=5;strokeColor=#B20000;fontColor=#ffffff;shadow=0;spacing=1;" vertex="1" parent="1">
          <mxGeometry x="483" y="32" width="20" height="20" as="geometry" />
        </mxCell>
        <mxCell id="a6EMXTeNVGumvd3EIG6Z-70" value="" style="shape=waypoint;fillStyle=solid;size=6;pointerEvents=1;points=[];fillColor=#e51400;resizable=0;rotatable=0;perimeter=centerPerimeter;snapToPoint=1;strokeWidth=0.1;fontSize=5;strokeColor=#B20000;fontColor=#ffffff;shadow=0;spacing=1;" vertex="1" parent="1">
          <mxGeometry x="496" y="5" width="20" height="20" as="geometry" />
        </mxCell>
        <mxCell id="a6EMXTeNVGumvd3EIG6Z-71" value="" style="shape=waypoint;fillStyle=solid;size=6;pointerEvents=1;points=[];fillColor=#e51400;resizable=0;rotatable=0;perimeter=centerPerimeter;snapToPoint=1;strokeWidth=0.1;fontSize=5;strokeColor=#B20000;fontColor=#ffffff;shadow=0;spacing=1;" vertex="1" parent="1">
          <mxGeometry x="496" y="12" width="20" height="20" as="geometry" />
        </mxCell>
        <mxCell id="a6EMXTeNVGumvd3EIG6Z-72" value="" style="shape=waypoint;fillStyle=solid;size=6;pointerEvents=1;points=[];fillColor=#e51400;resizable=0;rotatable=0;perimeter=centerPerimeter;snapToPoint=1;strokeWidth=0.1;fontSize=5;strokeColor=#B20000;fontColor=#ffffff;shadow=0;spacing=1;" vertex="1" parent="1">
          <mxGeometry x="496" y="34" width="20" height="20" as="geometry" />
        </mxCell>
        <mxCell id="a6EMXTeNVGumvd3EIG6Z-73" value="" style="shape=waypoint;fillStyle=solid;size=6;pointerEvents=1;points=[];fillColor=#e51400;resizable=0;rotatable=0;perimeter=centerPerimeter;snapToPoint=1;strokeWidth=0.1;fontSize=5;strokeColor=#B20000;fontColor=#ffffff;shadow=0;spacing=1;" vertex="1" parent="1">
          <mxGeometry x="517" y="12" width="20" height="20" as="geometry" />
        </mxCell>
        <mxCell id="a6EMXTeNVGumvd3EIG6Z-74" value="" style="shape=waypoint;fillStyle=solid;size=6;pointerEvents=1;points=[];fillColor=#e51400;resizable=0;rotatable=0;perimeter=centerPerimeter;snapToPoint=1;strokeWidth=0.1;fontSize=5;strokeColor=#B20000;fontColor=#ffffff;shadow=0;spacing=1;" vertex="1" parent="1">
          <mxGeometry x="517" y="33" width="20" height="20" as="geometry" />
        </mxCell>
        <mxCell id="a6EMXTeNVGumvd3EIG6Z-75" value="" style="shape=waypoint;fillStyle=solid;size=6;pointerEvents=1;points=[];fillColor=#e51400;resizable=0;rotatable=0;perimeter=centerPerimeter;snapToPoint=1;strokeWidth=0.1;fontSize=5;strokeColor=#B20000;fontColor=#ffffff;shadow=0;spacing=1;" vertex="1" parent="1">
          <mxGeometry x="555" y="7" width="20" height="20" as="geometry" />
        </mxCell>
        <mxCell id="a6EMXTeNVGumvd3EIG6Z-76" value="" style="shape=waypoint;fillStyle=solid;size=6;pointerEvents=1;points=[];fillColor=#e51400;resizable=0;rotatable=0;perimeter=centerPerimeter;snapToPoint=1;strokeWidth=0.1;fontSize=5;strokeColor=#B20000;fontColor=#ffffff;shadow=0;spacing=1;" vertex="1" parent="1">
          <mxGeometry x="555" y="28" width="20" height="20" as="geometry" />
        </mxCell>
        <mxCell id="a6EMXTeNVGumvd3EIG6Z-77" value="" style="shape=waypoint;fillStyle=solid;size=6;pointerEvents=1;points=[];fillColor=#e51400;resizable=0;rotatable=0;perimeter=centerPerimeter;snapToPoint=1;strokeWidth=0.1;fontSize=5;strokeColor=#B20000;fontColor=#ffffff;shadow=0;spacing=1;" vertex="1" parent="1">
          <mxGeometry x="555" y="40" width="20" height="20" as="geometry" />
        </mxCell>
        <mxCell id="a6EMXTeNVGumvd3EIG6Z-78" value="" style="shape=waypoint;fillStyle=solid;size=6;pointerEvents=1;points=[];fillColor=#e51400;resizable=0;rotatable=0;perimeter=centerPerimeter;snapToPoint=1;strokeWidth=0.1;fontSize=5;strokeColor=#B20000;fontColor=#ffffff;shadow=0;spacing=1;" vertex="1" parent="1">
          <mxGeometry x="534" y="45" width="20" height="20" as="geometry" />
        </mxCell>
        <mxCell id="a6EMXTeNVGumvd3EIG6Z-79" value="" style="shape=waypoint;fillStyle=solid;size=6;pointerEvents=1;points=[];fillColor=#e51400;resizable=0;rotatable=0;perimeter=centerPerimeter;snapToPoint=1;strokeWidth=0.1;fontSize=5;strokeColor=#B20000;fontColor=#ffffff;shadow=0;spacing=1;" vertex="1" parent="1">
          <mxGeometry x="535" y="30" width="20" height="20" as="geometry" />
        </mxCell>
        <mxCell id="a6EMXTeNVGumvd3EIG6Z-80" value="" style="shape=waypoint;fillStyle=solid;size=6;pointerEvents=1;points=[];fillColor=#e51400;resizable=0;rotatable=0;perimeter=centerPerimeter;snapToPoint=1;strokeWidth=0.1;fontSize=5;strokeColor=#B20000;fontColor=#ffffff;shadow=0;spacing=1;" vertex="1" parent="1">
          <mxGeometry x="534" y="10" width="20" height="20" as="geometry" />
        </mxCell>
        <mxCell id="a6EMXTeNVGumvd3EIG6Z-83" value="90,20" style="text;align=center;verticalAlign=middle;rounded=0;fontSize=3;spacing=1;fontColor=default;" vertex="1" parent="1">
          <mxGeometry x="405" y="10" width="10" height="10" as="geometry" />
        </mxCell>
        <mxCell id="a6EMXTeNVGumvd3EIG6Z-84" value="90,40" style="text;align=center;verticalAlign=middle;rounded=0;fontSize=3;spacing=1;fontColor=default;" vertex="1" parent="1">
          <mxGeometry x="403" y="39" width="10" height="10" as="geometry" />
        </mxCell>
        <mxCell id="a6EMXTeNVGumvd3EIG6Z-85" value="110,15" style="text;align=center;verticalAlign=middle;rounded=0;fontSize=3;spacing=1;fontColor=default;" vertex="1" parent="1">
          <mxGeometry x="431" y="7" width="10" height="10" as="geometry" />
        </mxCell>
        <mxCell id="a6EMXTeNVGumvd3EIG6Z-86" value="110,50" style="text;align=center;verticalAlign=middle;rounded=0;fontSize=3;spacing=1;fontColor=default;" vertex="1" parent="1">
          <mxGeometry x="435" y="48" width="10" height="10" as="geometry" />
        </mxCell>
        <mxCell id="a6EMXTeNVGumvd3EIG6Z-87" value="87,55" style="text;align=center;verticalAlign=middle;rounded=0;fontSize=3;spacing=1;fontColor=default;" vertex="1" parent="1">
          <mxGeometry x="400" y="54" width="10" height="10" as="geometry" />
        </mxCell>
        <mxCell id="a6EMXTeNVGumvd3EIG6Z-88" value="110,40" style="text;align=center;verticalAlign=middle;rounded=0;fontSize=3;spacing=1;fontColor=default;" vertex="1" parent="1">
          <mxGeometry x="435" y="34" width="10" height="10" as="geometry" />
        </mxCell>
        <mxCell id="a6EMXTeNVGumvd3EIG6Z-89" value="145,5" style="text;align=center;verticalAlign=middle;rounded=0;fontSize=3;spacing=1;fontColor=default;" vertex="1" parent="1">
          <mxGeometry x="464" y="-1" width="10" height="10" as="geometry" />
        </mxCell>
        <mxCell id="a6EMXTeNVGumvd3EIG6Z-90" value="130,55" style="text;align=center;verticalAlign=middle;rounded=0;fontSize=3;spacing=1;fontColor=default;" vertex="1" parent="1">
          <mxGeometry x="448" y="44" width="10" height="10" as="geometry" />
        </mxCell>
        <mxCell id="a6EMXTeNVGumvd3EIG6Z-91" value="130,18" style="text;align=center;verticalAlign=middle;rounded=0;fontSize=3;spacing=1;fontColor=default;" vertex="1" parent="1">
          <mxGeometry x="452" y="6" width="10" height="10" as="geometry" />
        </mxCell>
        <mxCell id="a6EMXTeNVGumvd3EIG6Z-92" value="122,18" style="text;align=center;verticalAlign=middle;rounded=0;fontSize=3;spacing=1;fontColor=default;" vertex="1" parent="1">
          <mxGeometry x="436" y="17" width="10" height="10" as="geometry" />
        </mxCell>
        <mxCell id="a6EMXTeNVGumvd3EIG6Z-93" value="122,18" style="text;align=center;verticalAlign=middle;rounded=0;fontSize=3;spacing=1;fontColor=default;" vertex="1" parent="1">
          <mxGeometry x="453" y="17" width="10" height="10" as="geometry" />
        </mxCell>
        <mxCell id="a6EMXTeNVGumvd3EIG6Z-94" value="145,18" style="text;align=center;verticalAlign=middle;rounded=0;fontSize=3;spacing=1;fontColor=default;" vertex="1" parent="1">
          <mxGeometry x="463" y="10" width="10" height="10" as="geometry" />
        </mxCell>
        <mxCell id="a6EMXTeNVGumvd3EIG6Z-95" value="175,30" style="text;align=center;verticalAlign=middle;rounded=0;fontSize=3;spacing=1;fontColor=default;" vertex="1" parent="1">
          <mxGeometry x="488" y="28" width="10" height="10" as="geometry" />
        </mxCell>
        <mxCell id="a6EMXTeNVGumvd3EIG6Z-96" value="150,30" style="text;align=center;verticalAlign=middle;rounded=0;fontSize=3;spacing=1;fontColor=default;" vertex="1" parent="1">
          <mxGeometry x="471" y="28" width="10" height="10" as="geometry" />
        </mxCell>
        <mxCell id="a6EMXTeNVGumvd3EIG6Z-97" value="175,40" style="text;align=center;verticalAlign=middle;rounded=0;fontSize=3;spacing=1;fontColor=default;" vertex="1" parent="1">
          <mxGeometry x="488" y="44" width="10" height="10" as="geometry" />
        </mxCell>
        <mxCell id="a6EMXTeNVGumvd3EIG6Z-98" value="185,13" style="text;align=center;verticalAlign=middle;rounded=0;fontSize=3;spacing=1;fontColor=default;" vertex="1" parent="1">
          <mxGeometry x="501" y="6" width="10" height="10" as="geometry" />
        </mxCell>
        <mxCell id="a6EMXTeNVGumvd3EIG6Z-99" value="185,23" style="text;align=center;verticalAlign=middle;rounded=0;fontSize=3;spacing=1;fontColor=default;" vertex="1" parent="1">
          <mxGeometry x="509" y="19" width="10" height="10" as="geometry" />
        </mxCell>
        <mxCell id="a6EMXTeNVGumvd3EIG6Z-100" value="185,42" style="text;align=center;verticalAlign=middle;rounded=0;fontSize=3;spacing=1;fontColor=default;" vertex="1" parent="1">
          <mxGeometry x="503" y="45" width="10" height="10" as="geometry" />
        </mxCell>
        <mxCell id="a6EMXTeNVGumvd3EIG6Z-101" value="205,20" style="text;align=center;verticalAlign=middle;rounded=0;fontSize=3;spacing=1;fontColor=default;" vertex="1" parent="1">
          <mxGeometry x="529" y="13" width="10" height="10" as="geometry" />
        </mxCell>
        <mxCell id="a6EMXTeNVGumvd3EIG6Z-102" value="205,42" style="text;align=center;verticalAlign=middle;rounded=0;fontSize=3;spacing=1;fontColor=default;" vertex="1" parent="1">
          <mxGeometry x="524" y="45" width="10" height="10" as="geometry" />
        </mxCell>
        <mxCell id="a6EMXTeNVGumvd3EIG6Z-103" value="245,15" style="text;align=center;verticalAlign=middle;rounded=0;fontSize=3;spacing=1;fontColor=default;" vertex="1" parent="1">
          <mxGeometry x="560" y="7" width="10" height="10" as="geometry" />
        </mxCell>
        <mxCell id="a6EMXTeNVGumvd3EIG6Z-104" value="245,40" style="text;align=center;verticalAlign=middle;rounded=0;fontSize=3;spacing=1;fontColor=default;" vertex="1" parent="1">
          <mxGeometry x="568" y="34" width="10" height="10" as="geometry" />
        </mxCell>
        <mxCell id="a6EMXTeNVGumvd3EIG6Z-105" value="245,50" style="text;align=center;verticalAlign=middle;rounded=0;fontSize=3;spacing=1;fontColor=default;" vertex="1" parent="1">
          <mxGeometry x="568" y="45" width="10" height="10" as="geometry" />
        </mxCell>
        <mxCell id="a6EMXTeNVGumvd3EIG6Z-106" value="225,55" style="text;align=center;verticalAlign=middle;rounded=0;fontSize=3;spacing=1;fontColor=default;" vertex="1" parent="1">
          <mxGeometry x="540" y="56" width="10" height="10" as="geometry" />
        </mxCell>
        <mxCell id="a6EMXTeNVGumvd3EIG6Z-107" value="225,40" style="text;align=center;verticalAlign=middle;rounded=0;fontSize=3;spacing=1;fontColor=default;" vertex="1" parent="1">
          <mxGeometry x="546" y="31" width="10" height="10" as="geometry" />
        </mxCell>
        <mxCell id="a6EMXTeNVGumvd3EIG6Z-108" value="225,20" style="text;align=center;verticalAlign=middle;rounded=0;fontSize=3;spacing=1;fontColor=default;" vertex="1" parent="1">
          <mxGeometry x="539" y="8" width="10" height="10" as="geometry" />
        </mxCell>
      </root>
    </mxGraphModel>
  </diagram>
</mxfile>
